<svg xmlns="http://www.w3.org/2000/svg" width="512" height="512" viewBox="0 0 512 512" version="1.1"><path d="" stroke="none" fill="#18ecfc" fill-rule="evenodd"/><path d="M 340.001 141.738 C 338.627 141.995, 322.202 148.055, 303.501 155.206 C 284.800 162.356, 267.806 168.818, 265.735 169.564 L 261.970 170.922 251.919 162.711 C 237.813 151.188, 234.289 149, 229.834 149 C 227.057 149, 225.151 149.807, 222.566 152.076 C 217.289 156.710, 217.128 159.821, 221.458 173.568 C 223.474 179.971, 224.984 185.306, 224.812 185.424 C 222.219 187.209, 180.704 202.065, 180.150 201.407 C 179.730 200.908, 173.935 193.975, 167.273 186 C 160.610 178.025, 153.302 169.700, 151.031 167.500 C 147.227 163.813, 146.470 163.500, 141.375 163.500 C 136.268 163.500, 135.585 163.785, 132.423 167.235 C 127.705 172.384, 127.890 175.186, 134.540 199.361 C 137.587 210.437, 140.340 221.358, 140.659 223.628 L 141.238 227.756 131.869 230.895 C 119.246 235.124, 114.583 237.840, 114.192 241.189 C 113.956 243.209, 114.425 244.003, 116.192 244.573 C 120.492 245.961, 129.150 245.070, 142.311 241.887 L 155.425 238.715 162.463 240.410 C 180.052 244.644, 188.047 244.746, 228.406 241.249 L 234.313 240.737 228.850 248.619 C 225.845 252.953, 219.700 261.603, 215.193 267.841 C 208.716 276.806, 207 279.903, 207 282.626 C 207 286.976, 209.245 290.445, 213.093 292.038 C 216.776 293.564, 228.869 292.636, 232.975 290.513 C 235.901 289, 250.618 276.192, 264.512 263.068 C 268.918 258.906, 275.541 252.870, 279.229 249.657 L 285.935 243.813 295.546 247.015 L 305.158 250.218 315.060 247.079 L 324.961 243.940 328.941 245.970 C 334.067 248.585, 340.323 248.582, 344.561 245.962 C 348.910 243.274, 353.001 235.074, 352.996 229.054 C 352.989 219.717, 347.584 215.501, 333.177 213.592 L 324.777 212.479 331.139 210.125 C 334.637 208.831, 347.360 204.197, 359.411 199.828 C 371.463 195.459, 382.488 191.276, 383.911 190.531 C 392.874 185.847, 397.223 174.060, 393.640 164.166 C 389.653 153.155, 366.382 140.881, 350 141.150 C 345.875 141.217, 341.375 141.482, 340.001 141.738 M 340 151.829 C 336.425 152.831, 308.750 163.210, 278.500 174.893 C 248.250 186.576, 214.260 199.704, 202.967 204.067 C 191.673 208.430, 181.548 211.998, 180.467 211.995 C 179.385 211.992, 177.310 210.980, 175.855 209.745 C 172.951 207.281, 151.088 181.590, 148.389 177.470 C 145.882 173.645, 141.739 171.739, 139.495 173.380 C 137.071 175.152, 137.797 179.371, 144.839 204.434 L 150.528 224.681 156.014 222.805 C 163.325 220.305, 167.738 220.742, 170.324 224.221 C 172.059 226.554, 172.175 227.321, 171.136 229.600 C 170.470 231.062, 170.155 232.488, 170.435 232.769 C 170.716 233.049, 175.570 233.725, 181.223 234.271 C 197.431 235.835, 236.578 232.688, 241.723 229.407 C 242.946 228.627, 246.152 224.729, 248.848 220.744 C 251.544 216.760, 254.622 212.719, 255.688 211.764 C 256.766 210.799, 267.028 207.576, 278.812 204.502 C 290.464 201.463, 303.486 197.863, 307.749 196.501 C 319.779 192.659, 324.273 193.305, 327.664 199.365 C 328.440 200.750, 331.058 200.055, 348.027 193.953 C 373.307 184.863, 379.370 182.313, 382.414 179.492 C 385.343 176.777, 386.487 173.076, 385.549 169.341 C 384.676 165.859, 378.766 160, 376.128 160 C 374.989 160, 367.526 162.475, 359.544 165.500 C 351.562 168.525, 344.844 171, 344.614 171 C 344.071 171, 342 165.061, 342 163.504 C 342 162.845, 347.056 160.367, 353.236 157.999 L 364.473 153.692 360.546 152.332 C 353.864 150.019, 347.046 149.852, 340 151.829 M 228.607 159.582 C 228.273 160.452, 228 162.429, 228 163.976 C 228 166.988, 231.698 179.982, 232.925 181.282 C 233.616 182.013, 249.550 176.580, 251.298 175.018 C 252.460 173.978, 232.433 158, 229.967 158 C 229.553 158, 228.941 158.712, 228.607 159.582 M 303.500 176.569 C 299.214 178.792, 298.670 179.549, 299.365 182.316 C 300.176 185.548, 302.378 186.287, 306.306 184.645 C 311.375 182.526, 312.576 180.527, 310.595 177.505 C 308.686 174.590, 307.591 174.446, 303.500 176.569 M 287.250 182.963 C 283.517 185.269, 283.183 186.951, 285.960 189.464 C 288.366 191.641, 291.769 190.974, 295.703 187.553 C 298.002 185.554, 298.304 184.799, 297.399 183.311 C 295.849 180.760, 291.081 180.597, 287.250 182.963 M 275.211 187.129 C 271.244 188.273, 269.025 192.120, 270.975 194.470 C 273.733 197.793, 283 194.867, 283 190.674 C 283 188.241, 281.270 185.942, 279.550 186.090 C 278.973 186.140, 277.020 186.607, 275.211 187.129 M 260.465 192.952 C 257.233 194.262, 255.711 196.713, 256.407 199.487 C 257.137 202.393, 259.376 202.705, 264.410 200.602 C 268.503 198.892, 269.370 197.610, 268.575 194.443 C 267.923 191.846, 264.670 191.247, 260.465 192.952 M 245.872 199.006 C 241.726 201.196, 240.415 203.591, 242.191 205.730 C 243.604 207.433, 250.150 206.950, 252.539 204.967 C 255.201 202.759, 253.732 196.910, 250.550 197.044 C 249.972 197.069, 247.867 197.951, 245.872 199.006 M 292.500 210.433 C 259.015 219.205, 262.375 217.686, 255.395 227.209 C 252.053 231.769, 247.812 237.750, 245.971 240.500 C 239.632 249.969, 222.650 273.507, 219.328 277.430 C 214.461 283.177, 214.834 284.347, 221.250 283.470 C 224.137 283.075, 227.440 282.396, 228.589 281.962 C 229.738 281.527, 243.467 269.546, 259.098 255.336 C 274.730 241.126, 293.700 223.988, 301.254 217.250 C 308.809 210.512, 314.430 205.044, 313.745 205.097 C 313.060 205.150, 303.500 207.552, 292.500 210.433 M 302.847 228.133 L 293.500 236.838 297.218 238.419 C 302.126 240.506, 304.738 240.417, 314.130 237.843 C 321.976 235.693, 322 235.676, 322 232.311 C 322 230.455, 322.681 227.306, 323.513 225.314 C 324.345 223.323, 324.908 221.619, 324.763 221.528 C 324.618 221.437, 321.731 220.927, 318.347 220.395 L 312.194 219.428 302.847 228.133 M 335.200 224.122 C 330.390 225.901, 329.099 234.969, 333.135 238.623 C 336.024 241.236, 339.948 239.430, 342.864 234.144 C 344.771 230.687, 345.036 229.375, 344.200 227.540 C 342.914 224.718, 338.313 222.970, 335.200 224.122 M 159.500 226.696 C 153.875 228.120, 118.761 240.820, 120.108 240.944 C 121.587 241.081, 156.048 232.980, 161 231.331 C 164.408 230.196, 166.500 228.930, 166.500 228 C 166.500 226.431, 163.072 225.792, 159.500 226.696 M 286.571 301.571 C 284.606 303.537, 284.707 301.507, 284.976 333.500 C 285.232 363.947, 285.631 366.112, 291.432 368.536 C 296.594 370.693, 303.161 370.430, 305.811 367.961 C 310.004 364.055, 307.563 357.375, 301.737 356.812 L 298.500 356.500 298 329.212 C 297.582 306.424, 297.253 301.768, 296 300.978 C 293.658 299.499, 288.307 299.836, 286.571 301.571 M 307.985 301.518 C 307.029 302.670, 306.769 309.611, 306.908 330.268 C 307.075 355.008, 307.271 357.872, 309.046 361.566 C 311.902 367.509, 317.628 370.500, 326.030 370.440 C 335.670 370.371, 340.520 367.431, 344.750 359.095 C 347.525 353.626, 348 351.635, 348 345.471 C 348 337.078, 346.036 330.700, 342.211 326.675 C 336.780 320.958, 331.172 319.648, 324.346 322.500 C 322.371 323.325, 320.586 324, 320.378 324 C 320.170 324, 320 319.345, 320 313.655 C 320 304.903, 319.718 303.055, 318.171 301.655 C 315.880 299.582, 309.661 299.498, 307.985 301.518 M 84.557 304.223 C 82.462 307.214, 82.597 309.597, 85 312 C 86.587 313.587, 88.333 314, 93.450 314 L 99.901 314 100.200 338.483 L 100.500 362.965 103.736 366.199 C 106.642 369.103, 107.661 369.467, 113.736 369.770 C 122.234 370.193, 127 367.795, 127 363.096 C 127 357.706, 126.239 357, 120.428 357 C 116.155 357, 114.861 356.609, 114.035 355.066 C 113.423 353.921, 113 345.141, 113 333.566 L 113 314 120.927 314 C 128.317 314, 128.997 313.820, 130.945 311.343 C 133.214 308.458, 132.935 305.394, 130.208 303.250 C 129.049 302.339, 122.853 302, 107.366 302 C 86.538 302, 86.082 302.044, 84.557 304.223 M 400.462 310.418 C 399.462 311.945, 398.992 314.434, 399.189 317.168 C 399.476 321.169, 399.278 321.576, 396.596 322.500 C 392.568 323.887, 391.309 326.187, 392.793 329.445 C 393.547 331.100, 395.061 332.262, 396.957 332.641 L 399.937 333.237 399.830 345.888 C 399.710 360.190, 401.205 364.980, 406.809 368.250 C 412.744 371.713, 424.395 369.867, 426.970 365.055 C 429.572 360.194, 426.890 357.007, 420.179 356.985 C 412.792 356.961, 412.546 356.567, 412.165 344.156 L 411.829 333.235 419.024 332.829 C 426.272 332.419, 429 330.910, 429 327.309 C 429 324.065, 425.111 322, 419 322 L 413 322 413 317 C 413 310.829, 410.650 308, 405.523 308 C 402.949 308, 401.635 308.628, 400.462 310.418 M 130.655 322.829 C 129.228 324.406, 129.002 327.466, 129.015 345.079 C 129.024 356.310, 129.361 365.995, 129.765 366.600 C 130.827 368.191, 134.560 370, 136.779 370 C 140.432 370, 141.704 366.977, 142.338 356.788 C 142.670 351.446, 143.568 345.575, 144.335 343.741 C 146.190 339.301, 151.241 335.195, 156.619 333.757 C 160.491 332.721, 161 332.255, 161 329.743 C 161 328.180, 160.313 325.573, 159.474 323.950 C 158.161 321.410, 157.378 321, 153.843 321 C 150.328 321, 149.108 321.629, 145.368 325.368 C 142.237 328.500, 141 329.246, 141 328.003 C 141 325.268, 137.089 321, 134.582 321 C 133.333 321, 131.565 321.823, 130.655 322.829 M 169.578 322.071 C 167.421 322.604, 165.059 323.536, 164.328 324.142 C 162.611 325.568, 162.623 330.102, 164.351 332.465 C 165.557 334.115, 166.193 334.189, 170.294 333.156 C 176.729 331.536, 180.109 331.744, 182.963 333.937 L 185.425 335.830 181.463 336.499 C 170.917 338.281, 165.248 341.634, 161.991 348.018 C 155.335 361.064, 166.989 374.212, 180.282 368.655 C 182.052 367.915, 184.077 366.614, 184.782 365.764 C 185.915 364.398, 186.401 364.555, 188.955 367.109 C 193.789 371.943, 201.549 370.918, 203.947 365.129 C 205.539 361.284, 203.935 358, 200.465 358 L 198 358 198 346.212 C 198 335.959, 197.707 333.850, 195.750 330.020 C 192.354 323.375, 189.240 321.574, 180.699 321.318 C 176.740 321.200, 171.735 321.539, 169.578 322.071 M 203.750 322.080 C 201.365 323.469, 201.524 327.320, 204.512 340.500 C 209.797 363.813, 212.504 368.852, 220.208 369.720 C 229.373 370.753, 232.852 365.507, 238.057 342.808 C 242.635 322.840, 242.584 323.383, 240.010 322.005 C 237.443 320.631, 231.725 321.422, 230.104 323.375 C 228.782 324.967, 225.620 337.595, 223.882 348.226 C 223.187 352.475, 222.381 355.715, 222.092 355.425 C 221.803 355.136, 220.588 349.859, 219.392 343.700 C 216.501 328.807, 215.251 324.394, 213.402 322.545 C 211.657 320.800, 206.384 320.546, 203.750 322.080 M 253.142 323.159 C 244.977 327.200, 240.267 336.980, 241.252 347.846 C 242.565 362.320, 253.922 372.228, 267.377 370.640 C 277.362 369.461, 282.077 364.750, 279.009 359.017 C 277.965 357.066, 277.343 356.978, 269.039 357.605 C 260.429 358.255, 260.110 358.201, 257.591 355.682 C 256.166 354.257, 255 352.620, 255 352.045 C 255 351.389, 258.676 351, 264.889 351 C 276.284 351, 278.556 349.906, 279.944 343.752 C 281.688 336.012, 277.180 325.737, 270.688 322.656 C 265.800 320.337, 258.416 320.548, 253.142 323.159 M 365.239 322.335 C 355.740 325.780, 350.026 334.867, 350.010 346.554 C 349.992 359.289, 356.106 367.538, 367.444 370.075 C 376.868 372.184, 386.702 367.309, 391.117 358.340 C 394.387 351.698, 394.490 339.413, 391.324 333.500 C 385.808 323.195, 375.285 318.691, 365.239 322.335 M 259.229 332.669 C 258.087 333.129, 255 338.078, 255 339.450 C 255 339.753, 257.925 340, 261.500 340 C 267.062 340, 268 339.744, 268 338.223 C 268 333.775, 263.524 330.941, 259.229 332.669 M 323 334.291 C 320.655 335.475, 320.482 336.103, 320.209 344.390 C 319.846 355.454, 321.213 358.277, 326.711 357.807 C 332.220 357.336, 334.500 353.590, 334.500 345.007 C 334.500 339.138, 334.154 337.793, 332.076 335.581 C 329.407 332.740, 326.805 332.371, 323 334.291 M 366.997 335.850 C 359.964 342.882, 363.039 358, 371.501 358 C 377.074 358, 380.286 353.439, 380.286 345.525 C 380.286 334.392, 373.439 329.407, 366.997 335.850 M 180.001 347.123 C 176.564 348.494, 173 352.004, 173 354.019 C 173 356.233, 176.152 359, 178.674 359 C 181.733 359, 184.179 355.594, 184.748 350.541 C 185.303 345.622, 184.755 345.228, 180.001 347.123" stroke="none" fill="#14ecfc" fill-rule="evenodd"/></svg>